<svg width="99" height="25" viewBox="0 0 99 25" fill="none" xmlns="http://www.w3.org/2000/svg">
<path d="M20.576 24V0.199998H14.864V14.106L5.922 0.199998H0.38V24H6.092V10.094L15 24H20.576ZM29.6667 0.199998H23.8187V24H29.6667V0.199998ZM43.4798 0.199998V16.69C43.4798 18.424 42.4598 19.614 40.3858 19.614C38.1758 19.614 37.2918 18.356 37.2918 16.622V16.316H31.7158V16.622C31.7158 21.382 35.0478 24.476 40.4538 24.476C45.6898 24.476 49.3278 21.246 49.3278 16.69V0.199998H43.4798ZM66.569 15.262C66.569 18.118 64.869 19.614 62.285 19.614C59.701 19.614 58.001 18.118 58.001 15.262V0.199998H52.153V15.126C52.153 20.702 56.063 24.476 62.285 24.476C68.507 24.476 72.417 20.702 72.417 15.126V0.199998H66.569V15.262ZM86.9209 13.154L80.6649 0.199998H75.2929V24H80.9029V11.42L84.6089 18.696H89.2329L92.9729 11.42V24H98.5829V0.199998H93.2109L86.9209 13.154Z" fill="#1F1F33"/>
</svg>
